<svg version="1.1" xmlns="http://www.w3.org/2000/svg" viewBox="0 0 616.5 511.62308568084154" width="616.5" height="511.62308568084154">
  <!-- svg-source:excalidraw -->
  
  <defs>
    <style class="style-fonts">
      @font-face {
        font-family: "Virgil";
        src: url("https://excalidraw.com/Virgil.woff2");
      }
      @font-face {
        font-family: "Cascadia";
        src: url("https://excalidraw.com/Cascadia.woff2");
      }
    </style>
  </defs>
  <rect x="0" y="0" width="616.5" height="511.62308568084154" fill="#ffffff"></rect><g stroke-linecap="round"><g transform="translate(98 57) rotate(0 147.33164375610653 -0.2487046080753874)"><path d="M-1.08 -0.4 C48.14 -0.56, 246.59 -0.24, 295.74 -0.24 M0.56 -1.66 C49.64 -1.69, 245.93 0.77, 295.18 1.16" stroke="#a61e4d" stroke-width="1" fill="none"></path></g></g><g transform="translate(76 57) rotate(0 19 15.5)"><text x="0" y="22" font-family="Virgil, Segoe UI Emoji" font-size="24px" fill="#a61e4d" text-anchor="start" style="white-space: pre;" direction="ltr">ax1</text></g><g transform="translate(372 56) rotate(0 24.5 15.5)"><text x="0" y="22" font-family="Virgil, Segoe UI Emoji" font-size="24px" fill="#a61e4d" text-anchor="start" style="white-space: pre;" direction="ltr">ax2</text></g><g stroke-linecap="round"><g transform="translate(272 42) rotate(0 150.70938249597322 0.013781716906287711)"><path d="M0.39 -0.91 C50.37 -0.98, 250.11 0.55, 300.06 0.6 M-0.86 1.23 C49.47 1.32, 251.72 -1.07, 302.28 -1.2" stroke="#0b7285" stroke-width="1" fill="none"></path></g></g><g transform="translate(260 10) rotate(0 17 15.5)"><text x="0" y="22" font-family="Virgil, Segoe UI Emoji" font-size="24px" fill="#0b7285" text-anchor="start" style="white-space: pre;" direction="ltr">bx1</text></g><g transform="translate(550 10) rotate(0 22.5 15.5)"><text x="0" y="22" font-family="Virgil, Segoe UI Emoji" font-size="24px" fill="#0b7285" text-anchor="start" style="white-space: pre;" direction="ltr">bx2</text></g><g stroke-linecap="round"><g transform="translate(90.74347826086955 453.62308568084154) rotate(0 229.477800604497 0.28842639394105163)"><path d="M0.11 -0.57 C76.91 -0.59, 383.72 0.39, 460.24 0.63 M-1.28 1.74 C75.49 1.31, 383.22 -0.71, 459.85 -1.16" stroke="#a61e4d" stroke-width="1" fill="none"></path></g></g><g transform="translate(56.5 453.62308568084154) rotate(0 29 24)"><text x="0" y="34" font-family="Virgil, Segoe UI Emoji" font-size="37.356521739130436px" fill="#a61e4d" text-anchor="start" style="white-space: pre;" direction="ltr">ax1</text></g><g transform="translate(517.2304347826087 452.0665639417111) rotate(0 37.5 24)"><text x="0" y="34" font-family="Virgil, Segoe UI Emoji" font-size="37.356521739130436px" fill="#a61e4d" text-anchor="start" style="white-space: pre;" direction="ltr">ax2</text></g><g stroke-linecap="round"><g transform="translate(157.5 439) rotate(0 150.68970680722038 -0.4918664831668025)"><path d="M0.63 0.05 C51.04 -0.3, 251.86 -0.92, 301.88 -1.03 M-0.5 -0.98 C49.88 -0.69, 251.34 -0.26, 301.39 -0.03" stroke="#0b7285" stroke-width="1" fill="none"></path></g></g><g transform="translate(145.5 407) rotate(0 17 15.5)"><text x="0" y="22" font-family="Virgil, Segoe UI Emoji" font-size="24px" fill="#0b7285" text-anchor="start" style="white-space: pre;" direction="ltr">bx1</text></g><g transform="translate(435.5 407) rotate(0 22.5 15.5)"><text x="0" y="22" font-family="Virgil, Segoe UI Emoji" font-size="24px" fill="#0b7285" text-anchor="start" style="white-space: pre;" direction="ltr">bx2</text></g><g stroke-linecap="round"><g transform="translate(173.5 325) rotate(0 147.89275123991075 -0.7593448685042574)"><path d="M-1.03 -0.25 C48.03 -0.57, 245.2 -1.14, 294.41 -1.04 M0.63 -1.43 C50.09 -1.72, 247.46 0.01, 296.81 -0.06" stroke="#a61e4d" stroke-width="1" fill="none"></path></g></g><g transform="translate(151.5 325) rotate(0 19 15.5)"><text x="0" y="22" font-family="Virgil, Segoe UI Emoji" font-size="24px" fill="#a61e4d" text-anchor="start" style="white-space: pre;" direction="ltr">ax1</text></g><g transform="translate(447.5 324) rotate(0 24.5 15.5)"><text x="0" y="22" font-family="Virgil, Segoe UI Emoji" font-size="24px" fill="#a61e4d" text-anchor="start" style="white-space: pre;" direction="ltr">ax2</text></g><g stroke-linecap="round"><g transform="translate(100.23134328358208 303.2835820895522) rotate(0 222.0276089465385 0.5657864697595016)"><path d="M-1.04 -0.74 C73.18 -0.62, 370.77 0.14, 445.1 0.17 M0.61 1.48 C74.73 1.88, 370.39 1.96, 444.33 1.8" stroke="#0b7285" stroke-width="1" fill="none"></path></g></g><g transform="translate(82.5 256) rotate(0 25 23)"><text x="0" y="32" font-family="Virgil, Segoe UI Emoji" font-size="35.462686567164184px" fill="#0b7285" text-anchor="start" style="white-space: pre;" direction="ltr">bx1</text></g><g transform="translate(511.0074626865671 256) rotate(0 32.5 23)"><text x="0" y="32" font-family="Virgil, Segoe UI Emoji" font-size="35.462686567164184px" fill="#0b7285" text-anchor="start" style="white-space: pre;" direction="ltr">bx2</text></g><g stroke-linecap="round"><g transform="translate(283.5 180) rotate(0 146.63125887714324 -0.3736714761704292)"><path d="M0.17 0.17 C49.37 -0.04, 245.33 -0.7, 294.46 -0.91 M-1.2 -0.79 C47.86 -0.91, 244.01 0.08, 293.23 0.14" stroke="#a61e4d" stroke-width="1" fill="none"></path></g></g><g transform="translate(261.5 180) rotate(0 19 15.5)"><text x="0" y="22" font-family="Virgil, Segoe UI Emoji" font-size="24px" fill="#a61e4d" text-anchor="start" style="white-space: pre;" direction="ltr">ax1</text></g><g transform="translate(557.5 179) rotate(0 24.5 15.5)"><text x="0" y="22" font-family="Virgil, Segoe UI Emoji" font-size="24px" fill="#a61e4d" text-anchor="start" style="white-space: pre;" direction="ltr">ax2</text></g><g stroke-linecap="round"><g transform="translate(95.5 168) rotate(0 150.52882691987787 -0.25089098494615314)"><path d="M-0.91 -0.05 C49.03 -0.06, 249.49 -0.68, 299.86 -0.6 M0.81 -1.13 C51.09 -0.94, 251.99 0.71, 301.97 0.62" stroke="#0b7285" stroke-width="1" fill="none"></path></g></g><g transform="translate(83.5 136) rotate(0 17 15.5)"><text x="0" y="22" font-family="Virgil, Segoe UI Emoji" font-size="24px" fill="#0b7285" text-anchor="start" style="white-space: pre;" direction="ltr">bx1</text></g><g transform="translate(373.5 136) rotate(0 22.5 15.5)"><text x="0" y="22" font-family="Virgil, Segoe UI Emoji" font-size="24px" fill="#0b7285" text-anchor="start" style="white-space: pre;" direction="ltr">bx2</text></g><g transform="translate(11 35) rotate(0 13.5 15.5)"><text x="0" y="22" font-family="Virgil, Segoe UI Emoji" font-size="24px" fill="#000000" text-anchor="start" style="white-space: pre;" direction="ltr">(1)</text></g><g transform="translate(10 153) rotate(0 18.5 15.5)"><text x="0" y="22" font-family="Virgil, Segoe UI Emoji" font-size="24px" fill="#000000" text-anchor="start" style="white-space: pre;" direction="ltr">(2)</text></g><g transform="translate(14 290) rotate(0 18 15.5)"><text x="0" y="22" font-family="Virgil, Segoe UI Emoji" font-size="24px" fill="#000000" text-anchor="start" style="white-space: pre;" direction="ltr">(3)</text></g><g transform="translate(18 426) rotate(0 17.5 15.5)"><text x="0" y="22" font-family="Virgil, Segoe UI Emoji" font-size="24px" fill="#000000" text-anchor="start" style="white-space: pre;" direction="ltr">(4)</text></g></svg>