<svg version="1.1" xmlns="http://www.w3.org/2000/svg" viewBox="0 0 983 487" width="983" height="487">
  <!-- svg-source:excalidraw -->
  
  <defs>
    <style class="style-fonts">
      @font-face {
        font-family: "Virgil";
        src: url("https://excalidraw.com/Virgil.woff2");
      }
      @font-face {
        font-family: "Cascadia";
        src: url("https://excalidraw.com/Cascadia.woff2");
      }
    </style>
  </defs>
  <rect x="0" y="0" width="983" height="487" fill="#ffffff"></rect><g stroke-linecap="round" transform="translate(10 21) rotate(0 63 28.5)"><path d="M1.49 -0.56 C26.8 2.11, 54.59 1.9, 126.84 -0.41 M-0.42 -0.83 C49.92 0.29, 97.79 -0.31, 125.69 0.63 M126.15 1.5 C127.56 23.84, 125.76 44.52, 124.6 55.97 M125.12 0.86 C125.39 19.93, 125.3 38.73, 125.44 56.36 M127.45 57.86 C94.52 58.89, 62.69 58.6, 0.9 55.19 M125.66 57.31 C92.95 57.61, 58.99 57.07, 0.99 57.11 M-0.27 58.6 C1.17 34.41, 0.28 11.25, 0.69 1.33 M0.45 57.78 C-1.2 41.86, -1.02 26.07, -0.7 -0.61" stroke="#000000" stroke-width="1" fill="none"></path></g><g stroke-linecap="round" transform="translate(125 113) rotate(0 61 27.5)"><path d="M-1.39 -1.21 C37.61 1.03, 75.37 1.39, 121.14 0.83 M-0.07 0.67 C47.44 -0.69, 93.25 -0.75, 121.71 0.41 M121.55 1.21 C123.26 16.86, 120.31 30.29, 121.3 53.92 M121.61 0.57 C122.54 20.02, 122.23 40.05, 122.7 54.01 M121.49 53.08 C89.32 55.94, 59.23 52.48, -0.64 55.54 M121.16 55.35 C77.6 53.46, 34.62 54.88, 0.49 54.16 M-1.94 54.65 C-0.08 38.36, -1.23 22.08, -0.87 1.71 M0.77 54.01 C-0.35 33.85, 0.03 13.17, 0.91 -0.99" stroke="#000000" stroke-width="1" fill="none"></path></g><g stroke-linecap="round" transform="translate(383 22) rotate(0 60 41.5)"><path d="M-1.92 -1.71 C28.76 -0.52, 52.54 -0.34, 120.54 1.23 M0.35 -0.28 C39.88 1.86, 81.85 1.5, 119.16 0.07 M119.65 -0.49 C120.21 17.15, 120.82 36.71, 121.71 84.59 M119.01 -0.09 C120.12 29.27, 120.32 58.84, 119.01 83.68 M121.82 84.89 C88.96 83.77, 60.06 80.37, 1.5 82.53 M120.16 83.98 C84.16 83.37, 47.68 83.99, -0.92 83.47 M-1.94 83.38 C-1.41 63.47, -0.77 43.93, -0.01 1.99 M0.5 82.73 C-0.55 61.23, 0.17 38.47, -0.22 -0.47" stroke="#000000" stroke-width="1" fill="none"></path></g><g stroke-linecap="round" transform="translate(447 55) rotate(0 64 53)"><path d="M-0.16 1.81 C35.32 0.96, 73.76 1.53, 126.93 1.82 M0.83 -1 C51.24 -1.13, 101.02 -1.25, 128.97 0.16 M129.7 -0.33 C126.94 43.14, 127.26 83.62, 126.87 104.06 M127.46 -0.98 C127.08 34.78, 126.72 68.08, 127.58 106.5 M129.19 104.42 C92.65 105.17, 59.78 105.8, -1.24 107.33 M128.1 106.49 C80.58 105.43, 34.19 105.81, -0.26 105.35 M-1.93 105.91 C-0.99 84.65, -1.19 58.78, 0.74 0.05 M-0.93 105.69 C0.11 68.41, 0.16 28.83, 0.81 -0.76" stroke="#000000" stroke-width="1" fill="none"></path></g><g stroke-linecap="round" transform="translate(711 107) rotate(0 126 36.5)"><path d="M1.08 1.03 C97.14 0.04, 192.24 2.07, 250.53 0.65 M-0.53 -0.68 C56.26 0.18, 110.38 0.5, 251.96 0.65 M252.05 1.26 C251.34 21.36, 249.66 40.92, 252.02 74.77 M251.24 0.46 C250.96 21.66, 251.26 44.74, 252.35 72.16 M252.02 73.42 C191.99 71.24, 129.6 73.47, 0.16 72.76 M251.48 72.92 C180.94 73.79, 108.96 73.11, 0.2 72.41 M0.34 74.7 C2.67 53.36, 2.2 31.74, -1.81 -0.47 M0.15 73.88 C1.08 48.36, 0.44 22.22, 0.91 0.67" stroke="#000000" stroke-width="1" fill="none"></path></g><g stroke-linecap="round" transform="translate(769 33) rotate(0 61 57.5)"><path d="M0.02 1.77 C40.35 -0.05, 82.06 -1.15, 122.92 -1.77 M0.35 -0.84 C27.18 -0.32, 55.08 0.04, 122.26 0.82 M122.19 -0.29 C121.89 29.75, 123.02 54.47, 121.8 115.98 M122.25 -0.72 C121.59 33.04, 122.77 68.17, 122.85 115.98 M120.19 114.53 C83.53 112.92, 41.98 114.64, 1.76 116.12 M122.91 115.67 C82.13 114.42, 41.54 113.64, -0.45 114.5 M-1.82 114.31 C1.38 72.88, -1.68 32.09, 1.71 -1.43 M0.15 114.65 C0.72 92.27, 0.8 67.6, 0.82 -0.04" stroke="#000000" stroke-width="1" fill="none"></path></g><g stroke-linecap="round" transform="translate(49 252) rotate(0 39 101)"><path d="M0.44 1.5 C23.63 -2.58, 48.99 0.07, 76.58 -1.41 M0.32 -0.08 C23.72 0.47, 49.84 0.13, 78.48 0.43 M79.21 0.88 C75.88 52.77, 76.57 110.54, 78.14 201 M77.13 0.08 C80.13 77.3, 79.23 155.06, 78.58 202.81 M77.38 201.09 C58.37 200.94, 40.51 201.72, 0.44 203.83 M77.73 202.33 C54.85 202.26, 33.66 201.45, -0.1 201.4 M1.12 201 C-0.04 132.74, -0.8 59.46, 1.56 -0.21 M0.85 201.69 C-1.46 130.08, -1.17 56.36, -0.73 -0.2" stroke="#000000" stroke-width="1" fill="none"></path></g><g stroke-linecap="round" transform="translate(84 297) rotate(0 63.5 47.5)"><path d="M0.44 1.83 C31.29 -1.21, 64.15 -0.37, 127.67 -1.72 M-0.1 -0.6 C36.95 2.17, 73.32 1.82, 126.44 0.97 M128.74 -0.24 C128.68 39.18, 128.48 77.23, 126.31 94.79 M126.18 -0.22 C126.25 33.48, 127.7 67.33, 126.04 95.77 M128.92 94.17 C82.35 95.21, 37.87 92.13, 1.17 95 M127.07 95.22 C78.52 96.24, 30.39 95.66, -0.47 94.65 M-0.62 95.58 C1.93 75.33, 0.67 55.04, 1.47 -1.45 M-0.31 94.76 C-1.61 67.06, -1.58 36.67, 0.37 0.1" stroke="#000000" stroke-width="1" fill="none"></path></g><g stroke-linecap="round" transform="translate(358 331) rotate(0 125 35.5)"><path d="M0.79 -0.31 C67.88 1.83, 139.64 0.99, 248.63 1.56 M-0.45 -0.74 C65.06 -1.3, 129.85 -1.25, 250.36 0.06 M251.96 0.2 C249.29 22.16, 248.52 44.63, 250.26 70.38 M250.08 0.42 C251.23 22.64, 250.54 47.6, 249.88 70.69 M248.76 69.99 C181.57 73.03, 110.89 72.87, -0.73 71.17 M249.26 71.01 C167.47 69.7, 85.77 68.98, -0.03 71.57 M1.83 71.27 C1.29 52.51, 1.95 31.96, 0.91 -0.8 M-0.26 70.71 C1.09 50.41, 0.3 31.31, 0.61 0.26" stroke="#000000" stroke-width="1" fill="none"></path></g><g stroke-linecap="round" transform="translate(436 256) rotate(0 50 110.5)"><path d="M-1.1 0.26 C24.67 1.43, 51.99 1.58, 100.15 0.85 M0.86 -0.12 C37.02 -0.28, 73.88 0.88, 99.24 -0.62 M99.99 -0.77 C100.37 75.01, 101.29 147.78, 98.42 221.02 M99.46 -0.03 C101.12 50.97, 99.66 101.82, 100.79 221.12 M101.06 221.91 C66.31 221.2, 33.06 220.62, -0.53 220.42 M99.96 221.61 C63.46 221.65, 25.81 221.89, 0.97 220.92 M1.71 220.79 C-1.04 171.94, 0.71 123.07, -1.13 -1.49 M-0.43 220.63 C-0.11 135.25, -0.55 50.67, -0.31 0.83" stroke="#000000" stroke-width="1" fill="none"></path></g><g stroke-linecap="round" transform="translate(709 268) rotate(0 132 90)"><path d="M-1.58 -0.79 C79.78 0.58, 157.11 1.6, 264.98 0.84 M-0.46 -0.4 C90.95 0.21, 182.87 -0.17, 263.92 -0.03 M262.81 2 C266.4 64.9, 262.91 130.23, 265.11 181.97 M264.47 0.14 C262.37 50.92, 263.88 103.64, 263.29 179.5 M263.2 180.03 C195.49 180.14, 127 179.43, 1.44 180.19 M264.16 180.02 C187.79 177.71, 111.07 177.44, -0.7 179.57 M-0.57 181.49 C0.62 127.51, 3.36 73.53, 0.93 0.11 M0.6 179.79 C1.08 134.25, 2 90.17, -0.99 0.78" stroke="#000000" stroke-width="1" fill="none"></path></g><g stroke-linecap="round" transform="translate(777 308) rotate(0 57 46)"><path d="M1.93 -0.15 C41.2 -1.03, 86.63 0.83, 113.75 -1.08 M-0.65 -0.86 C35.24 -0.09, 68.07 -0.65, 113.57 0.01 M113.29 1.93 C112.14 22.52, 115.35 43.2, 113.76 90.77 M113.85 -0.38 C113.25 18.13, 113.31 37.15, 113.99 91.04 M112.89 93.28 C88.85 93.92, 61.37 92.95, -1.01 90.05 M113.33 91.18 C70.24 91.78, 24.98 92.54, 0.92 91.81 M-1.81 90.06 C-2.36 74.34, -2.58 53.24, -0.63 1.04 M0.51 92.5 C-0.01 72.05, -1.23 50.03, 0.87 -0.79" stroke="#000000" stroke-width="1" fill="none"></path></g><g transform="translate(175 10) rotate(0 13.5 15.5)"><text x="0" y="22" font-family="Virgil, Segoe UI Emoji" font-size="24px" fill="#000000" text-anchor="start" style="white-space: pre;" direction="ltr">(1)</text></g><g transform="translate(372 137) rotate(0 18.5 15.5)"><text x="0" y="22" font-family="Virgil, Segoe UI Emoji" font-size="24px" fill="#000000" text-anchor="start" style="white-space: pre;" direction="ltr">(2)</text></g><g transform="translate(714 24) rotate(0 18 15.5)"><text x="0" y="22" font-family="Virgil, Segoe UI Emoji" font-size="24px" fill="#000000" text-anchor="start" style="white-space: pre;" direction="ltr">(3)</text></g><g transform="translate(173 243) rotate(0 17.5 15.5)"><text x="0" y="22" font-family="Virgil, Segoe UI Emoji" font-size="24px" fill="#000000" text-anchor="start" style="white-space: pre;" direction="ltr">(4)</text></g><g transform="translate(363 256) rotate(0 17.5 15.5)"><text x="0" y="22" font-family="Virgil, Segoe UI Emoji" font-size="24px" fill="#000000" text-anchor="start" style="white-space: pre;" direction="ltr">(5)</text></g><g transform="translate(733 228) rotate(0 17.5 15.5)"><text x="0" y="22" font-family="Virgil, Segoe UI Emoji" font-size="24px" fill="#000000" text-anchor="start" style="white-space: pre;" direction="ltr">(6)</text></g></svg>